<svg xmlns="http://www.w3.org/2000/svg" width="800" height="600" viewBox="-336.0 -221.0 672.0 472.0">
<rect x="-336.0" y="-221.0" width="672.0" height="472.0" fill="#1a1a1a"/>
<rect x="-296.0" y="-181.0" width="592.0" height="362.0" stroke="#ff4444" stroke-width="0.8" fill="none"/>
<rect x="-293.0" y="-178.0" width="586.0" height="356.0" stroke="#ff4444" stroke-width="0.8" fill="none"/>
<rect x="-263.0" y="-148.0" width="526.0" height="296.0" stroke="#44cc44" stroke-width="0.8" fill="none"/>
<rect x="-263.0" y="-148.0" width="30.0" height="12.0" stroke="#cc44cc" stroke-width="0.8" fill="rgba(204,68,204,0.3)"/>
<rect x="-263.0" y="-148.0" width="12.0" height="30.0" stroke="#cc44cc" stroke-width="0.8" fill="rgba(204,68,204,0.3)"/>
<circle cx="-257.0" cy="-142.0" r="2.2" stroke="#cccc44" stroke-width="0.6" fill="none"/>
<rect x="233.0" y="-148.0" width="30.0" height="12.0" stroke="#cc44cc" stroke-width="0.8" fill="rgba(204,68,204,0.3)"/>
<rect x="251.0" y="-148.0" width="12.0" height="30.0" stroke="#cc44cc" stroke-width="0.8" fill="rgba(204,68,204,0.3)"/>
<circle cx="257.0" cy="-142.0" r="2.2" stroke="#cccc44" stroke-width="0.6" fill="none"/>
<rect x="233.0" y="136.0" width="30.0" height="12.0" stroke="#cc44cc" stroke-width="0.8" fill="rgba(204,68,204,0.3)"/>
<rect x="251.0" y="118.0" width="12.0" height="30.0" stroke="#cc44cc" stroke-width="0.8" fill="rgba(204,68,204,0.3)"/>
<circle cx="257.0" cy="142.0" r="2.2" stroke="#cccc44" stroke-width="0.6" fill="none"/>
<rect x="-263.0" y="136.0" width="30.0" height="12.0" stroke="#cc44cc" stroke-width="0.8" fill="rgba(204,68,204,0.3)"/>
<rect x="-263.0" y="118.0" width="12.0" height="30.0" stroke="#cc44cc" stroke-width="0.8" fill="rgba(204,68,204,0.3)"/>
<circle cx="-257.0" cy="142.0" r="2.2" stroke="#cccc44" stroke-width="0.6" fill="none"/>
<rect x="-170.3" y="118.0" width="30.0" height="30.0" stroke="#cc44cc" stroke-width="0.8" fill="rgba(204,68,204,0.2)"/>
<rect x="-170.3" y="-148.0" width="30.0" height="30.0" stroke="#cc44cc" stroke-width="0.8" fill="rgba(204,68,204,0.2)"/>
<rect x="-15.0" y="118.0" width="30.0" height="30.0" stroke="#cc44cc" stroke-width="0.8" fill="rgba(204,68,204,0.2)"/>
<rect x="-15.0" y="-148.0" width="30.0" height="30.0" stroke="#cc44cc" stroke-width="0.8" fill="rgba(204,68,204,0.2)"/>
<rect x="140.3" y="118.0" width="30.0" height="30.0" stroke="#cc44cc" stroke-width="0.8" fill="rgba(204,68,204,0.2)"/>
<rect x="140.3" y="-148.0" width="30.0" height="30.0" stroke="#cc44cc" stroke-width="0.8" fill="rgba(204,68,204,0.2)"/>
<rect x="-263.0" y="-74.0" width="30.0" height="30.0" stroke="#cc44cc" stroke-width="0.8" fill="rgba(204,68,204,0.2)"/>
<rect x="233.0" y="-74.0" width="30.0" height="30.0" stroke="#cc44cc" stroke-width="0.8" fill="rgba(204,68,204,0.2)"/>
<rect x="-263.0" y="44.0" width="30.0" height="30.0" stroke="#cc44cc" stroke-width="0.8" fill="rgba(204,68,204,0.2)"/>
<rect x="233.0" y="44.0" width="30.0" height="30.0" stroke="#cc44cc" stroke-width="0.8" fill="rgba(204,68,204,0.2)"/>
<text x="-331.0" y="241.0" fill="#cccccc" font-family="monospace" font-size="6">SPACER PLAN — Main Unit  |  4 corner + 10 mid-wall  x2 levels</text>
</svg>
