<svg xmlns="http://www.w3.org/2000/svg" width="1100" height="1500" viewBox="0 0 1100 1500">
  <style>text { font-family: Arial, Helvetica, sans-serif; }</style>
  <rect width="1100" height="1500" fill="white"/>
  <text x="20.0" y="30.0" font-size="18" fill="#333" text-anchor="start" font-weight="bold">SATELLITE UNIT — CAP EXTRUSION (Rev 3.2, Flush)</text>
  <text x="20.0" y="50.0" font-size="11" fill="#555" text-anchor="start" font-weight="normal">Flush with S1: 343 x 239mm  |  Thickness: 8mm  |  Foam teeth: 5x26x10mm</text>
  <text x="260.0" y="115.0" font-size="13" fill="#333" text-anchor="middle" font-weight="bold">PLAN VIEW (top-down)</text>
  <rect x="60.0" y="130.0" width="400.0" height="278.7" fill="#fff3e6" stroke="#ff9a3c" stroke-width="2.5" opacity="1.0" rx="0"/>
  <rect x="60.0" y="130.0" width="400.0" height="278.7" fill="white" stroke="#cc6600" stroke-width="1.5" opacity="1.0" rx="0"/>
  <text x="260.0" y="273.4" font-size="10" fill="#555" text-anchor="middle" font-weight="normal">INNER OPENING</text>
  <text x="260.0" y="287.4" font-size="9" fill="#555" text-anchor="middle" font-weight="normal">(343 x 239mm)</text>
  <rect x="71.7" y="141.7" width="376.7" height="255.4" fill="none" stroke="#e03131" stroke-width="1.5" stroke-dasharray="6,3" rx="1"/>
  <rect x="95.0" y="165.0" width="330.0" height="208.7" fill="none" stroke="#e03131" stroke-width="1.5" stroke-dasharray="6,3" rx="1"/>
  <circle cx="83.3" cy="153.3" r="3.5" fill="none" stroke="#495057" stroke-width="1.2"/>
  <circle cx="201.1" cy="153.3" r="3.5" fill="none" stroke="#495057" stroke-width="1.2"/>
  <circle cx="318.9" cy="153.3" r="3.5" fill="none" stroke="#495057" stroke-width="1.2"/>
  <circle cx="436.7" cy="153.3" r="3.5" fill="none" stroke="#495057" stroke-width="1.2"/>
  <circle cx="83.3" cy="385.4" r="3.5" fill="none" stroke="#495057" stroke-width="1.2"/>
  <circle cx="201.1" cy="385.4" r="3.5" fill="none" stroke="#495057" stroke-width="1.2"/>
  <circle cx="318.9" cy="385.4" r="3.5" fill="none" stroke="#495057" stroke-width="1.2"/>
  <circle cx="436.7" cy="385.4" r="3.5" fill="none" stroke="#495057" stroke-width="1.2"/>
  <circle cx="83.3" cy="153.3" r="3.5" fill="none" stroke="#495057" stroke-width="1.2"/>
  <circle cx="83.3" cy="269.4" r="3.5" fill="none" stroke="#495057" stroke-width="1.2"/>
  <circle cx="83.3" cy="385.4" r="3.5" fill="none" stroke="#495057" stroke-width="1.2"/>
  <circle cx="436.7" cy="153.3" r="3.5" fill="none" stroke="#495057" stroke-width="1.2"/>
  <circle cx="436.7" cy="269.4" r="3.5" fill="none" stroke="#495057" stroke-width="1.2"/>
  <circle cx="436.7" cy="385.4" r="3.5" fill="none" stroke="#495057" stroke-width="1.2"/>
  <rect x="139.3" y="138.2" width="5.8" height="30.3" fill="#c68c00" stroke="#8B6914" stroke-width="0.8" opacity="0.7" rx="0"/>
  <rect x="139.3" y="370.2" width="5.8" height="30.3" fill="#c68c00" stroke="#8B6914" stroke-width="0.8" opacity="0.7" rx="0"/>
  <rect x="257.1" y="138.2" width="5.8" height="30.3" fill="#c68c00" stroke="#8B6914" stroke-width="0.8" opacity="0.7" rx="0"/>
  <rect x="257.1" y="370.2" width="5.8" height="30.3" fill="#c68c00" stroke="#8B6914" stroke-width="0.8" opacity="0.7" rx="0"/>
  <rect x="374.9" y="138.2" width="5.8" height="30.3" fill="#c68c00" stroke="#8B6914" stroke-width="0.8" opacity="0.7" rx="0"/>
  <rect x="374.9" y="370.2" width="5.8" height="30.3" fill="#c68c00" stroke="#8B6914" stroke-width="0.8" opacity="0.7" rx="0"/>
  <rect x="68.2" y="208.4" width="30.3" height="5.8" fill="#c68c00" stroke="#8B6914" stroke-width="0.8" opacity="0.7" rx="0"/>
  <rect x="421.5" y="208.4" width="30.3" height="5.8" fill="#c68c00" stroke="#8B6914" stroke-width="0.8" opacity="0.7" rx="0"/>
  <rect x="68.2" y="324.5" width="30.3" height="5.8" fill="#c68c00" stroke="#8B6914" stroke-width="0.8" opacity="0.7" rx="0"/>
  <rect x="421.5" y="324.5" width="30.3" height="5.8" fill="#c68c00" stroke="#8B6914" stroke-width="0.8" opacity="0.7" rx="0"/>
  <text x="260.0" y="122.0" font-size="8" fill="#e03131" text-anchor="middle" font-weight="normal">Dual gasket grooves (red dashed)</text>
  <text x="260.0" y="110.0" font-size="8" fill="#495057" text-anchor="middle" font-weight="normal">M4 bolt + 6mm insert (circles)</text>
  <text x="260.0" y="426.7" font-size="8" fill="#cc6600" text-anchor="middle" font-weight="normal">Flush with Shell 1 outer</text>
  <text x="260.0" y="440.7" font-size="7" fill="#8B6914" text-anchor="middle" font-weight="normal">Foam teeth (gold): 5x26x10mm every 50mm</text>
  <line x1="60.0" y1="423.7" x2="60.0" y2="433.7" stroke="#cc6600" stroke-width="1"/>
  <line x1="460.0" y1="423.7" x2="460.0" y2="433.7" stroke="#cc6600" stroke-width="1"/>
  <line x1="60.0" y1="428.7" x2="460.0" y2="428.7" stroke="#cc6600" stroke-width="1"/>
  <text x="260.0" y="424.7" font-size="10" fill="#cc6600" text-anchor="middle" font-weight="normal">343mm</text>
  <line x1="470.0" y1="130.0" x2="480.0" y2="130.0" stroke="#cc6600" stroke-width="1"/>
  <line x1="470.0" y1="408.7" x2="480.0" y2="408.7" stroke="#cc6600" stroke-width="1"/>
  <line x1="475.0" y1="130.0" x2="475.0" y2="408.7" stroke="#cc6600" stroke-width="1"/>
  <text x="481.0" y="273.4" font-size="10" fill="#cc6600" text-anchor="start" font-weight="normal">239mm</text>
  <text x="260.0" y="458.7" font-size="10" fill="#555" text-anchor="middle" font-weight="normal">Source: 7_cap_top_view.dxf + 8_cap_profile.dxf</text>
  <text x="770.0" y="115.0" font-size="13" fill="#333" text-anchor="middle" font-weight="bold">PROFILE CROSS-SECTION</text>
  <text x="770.0" y="130.0" font-size="9" fill="#555" text-anchor="middle" font-weight="normal">(height exaggerated for clarity)</text>
  <rect x="620.0" y="243.0" width="300.0" height="7.0" fill="#fff3e6" stroke="#ff9a3c" stroke-width="2.5" opacity="1.0" rx="0"/>
  <rect x="620.0" y="243.0" width="300.0" height="7.0" fill="white" stroke="#cc6600" stroke-width="1.5" opacity="1.0" rx="0"/>
  <line x1="938.0" y1="243.0" x2="948.0" y2="243.0" stroke="#555" stroke-width="1"/>
  <line x1="938.0" y1="250.0" x2="948.0" y2="250.0" stroke="#555" stroke-width="1"/>
  <line x1="943.0" y1="243.0" x2="943.0" y2="250.0" stroke="#555" stroke-width="1"/>
  <text x="949.0" y="250.5" font-size="10" fill="#555" text-anchor="start" font-weight="normal">8mm</text>
  <line x1="620.0" y1="265.0" x2="620.0" y2="275.0" stroke="#555" stroke-width="1"/>
  <line x1="920.0" y1="265.0" x2="920.0" y2="275.0" stroke="#555" stroke-width="1"/>
  <line x1="620.0" y1="270.0" x2="920.0" y2="270.0" stroke="#555" stroke-width="1"/>
  <text x="770.0" y="266.0" font-size="10" fill="#555" text-anchor="middle" font-weight="normal">343mm</text>
  <rect x="891.1" y="250.0" width="22.7" height="17.5" fill="#c68c00" stroke="#8B6914" stroke-width="1" opacity="1.0" rx="0"/>
  <rect x="626.1" y="250.0" width="22.7" height="17.5" fill="#c68c00" stroke="#8B6914" stroke-width="1" opacity="1.0" rx="0"/>
  <text x="918.9" y="261.7" font-size="8" fill="#8B6914" text-anchor="start" font-weight="normal">Foam teeth (10mm)</text>
  <line x1="980.0" y1="250.0" x2="980.0" y2="228.0" stroke="#ff9a3c" stroke-width="2"/>
  <polygon points="980.0,228.0 976.0,236.0 984.0,236.0" fill="#ff9a3c"/>
  <text x="990.0" y="250.5" font-size="11" fill="#cc6600" text-anchor="start" font-weight="bold">8mm</text>
  <text x="20.0" y="490.0" font-size="13" fill="#333" text-anchor="start" font-weight="bold">BOLT + INSERT POCKET DETAIL</text>
  <text x="20.0" y="507.0" font-size="10" fill="#555" text-anchor="start" font-weight="normal">Cross-section through a single M4 bolt hole (not to scale)</text>
  <rect x="60.0" y="540.0" width="280.0" height="130.0" fill="#fff3e6" stroke="#ff9a3c" stroke-width="2" opacity="1.0" rx="0"/>
  <text x="66.0" y="554.0" font-size="9" fill="#cc6600" text-anchor="start" font-weight="bold">CAP BODY (ASA)</text>
  <rect x="115.0" y="540.0" width="30.0" height="35.0" fill="white" stroke="#e03131" stroke-width="1.5" opacity="1.0" rx="0"/>
  <circle cx="130.0" cy="561.0" r="12.0" fill="#ffcccc" stroke="#e03131" stroke-width="1"/>
  <text x="130.0" y="534.0" font-size="8" fill="#e03131" text-anchor="middle" font-weight="normal">Gasket groove</text>
  <text x="130.0" y="587.0" font-size="7" fill="#e03131" text-anchor="middle" font-weight="normal">4W x 2.5D mm</text>
  <rect x="196.0" y="540.0" width="28.0" height="130.0" fill="#e8e8e8" stroke="#495057" stroke-width="1.5" opacity="1.0" rx="0"/>
  <line x1="210.0" y1="510.0" x2="210.0" y2="750.0" stroke="#495057" stroke-width="0.8" stroke-dasharray="4,3"/>
  <rect x="203.0" y="525.0" width="14.0" height="175.0" fill="#a0a0a0" stroke="#495057" stroke-width="1" opacity="1.0" rx="0"/>
  <rect x="185.0" y="503.0" width="50.0" height="22.0" fill="#6c757d" stroke="#333" stroke-width="1.5" opacity="1.0" rx="2"/>
  <text x="210.0" y="518.0" font-size="8" fill="white" text-anchor="middle" font-weight="bold">M4 BOLT HEAD</text>
  <rect x="186.0" y="610.0" width="48.0" height="60.0" fill="#fff3e0" stroke="#d9480f" stroke-width="2" opacity="1.0" rx="0"/>
  <line x1="188.0" y1="614.0" x2="195.0" y2="614.0" stroke="#c68c00" stroke-width="1.5"/>
  <line x1="225.0" y1="614.0" x2="232.0" y2="614.0" stroke="#c68c00" stroke-width="1.5"/>
  <line x1="188.0" y1="619.0" x2="195.0" y2="619.0" stroke="#c68c00" stroke-width="1.5"/>
  <line x1="225.0" y1="619.0" x2="232.0" y2="619.0" stroke="#c68c00" stroke-width="1.5"/>
  <line x1="188.0" y1="624.0" x2="195.0" y2="624.0" stroke="#c68c00" stroke-width="1.5"/>
  <line x1="225.0" y1="624.0" x2="232.0" y2="624.0" stroke="#c68c00" stroke-width="1.5"/>
  <line x1="188.0" y1="629.0" x2="195.0" y2="629.0" stroke="#c68c00" stroke-width="1.5"/>
  <line x1="225.0" y1="629.0" x2="232.0" y2="629.0" stroke="#c68c00" stroke-width="1.5"/>
  <line x1="188.0" y1="634.0" x2="195.0" y2="634.0" stroke="#c68c00" stroke-width="1.5"/>
  <line x1="225.0" y1="634.0" x2="232.0" y2="634.0" stroke="#c68c00" stroke-width="1.5"/>
  <line x1="188.0" y1="639.0" x2="195.0" y2="639.0" stroke="#c68c00" stroke-width="1.5"/>
  <line x1="225.0" y1="639.0" x2="232.0" y2="639.0" stroke="#c68c00" stroke-width="1.5"/>
  <line x1="188.0" y1="644.0" x2="195.0" y2="644.0" stroke="#c68c00" stroke-width="1.5"/>
  <line x1="225.0" y1="644.0" x2="232.0" y2="644.0" stroke="#c68c00" stroke-width="1.5"/>
  <line x1="188.0" y1="649.0" x2="195.0" y2="649.0" stroke="#c68c00" stroke-width="1.5"/>
  <line x1="225.0" y1="649.0" x2="232.0" y2="649.0" stroke="#c68c00" stroke-width="1.5"/>
  <line x1="188.0" y1="654.0" x2="195.0" y2="654.0" stroke="#c68c00" stroke-width="1.5"/>
  <line x1="225.0" y1="654.0" x2="232.0" y2="654.0" stroke="#c68c00" stroke-width="1.5"/>
  <line x1="188.0" y1="659.0" x2="195.0" y2="659.0" stroke="#c68c00" stroke-width="1.5"/>
  <line x1="225.0" y1="659.0" x2="232.0" y2="659.0" stroke="#c68c00" stroke-width="1.5"/>
  <line x1="188.0" y1="664.0" x2="195.0" y2="664.0" stroke="#c68c00" stroke-width="1.5"/>
  <line x1="225.0" y1="664.0" x2="232.0" y2="664.0" stroke="#c68c00" stroke-width="1.5"/>
  <text x="210.0" y="644.0" font-size="7" fill="#8B6914" text-anchor="middle" font-weight="bold">BRASS</text>
  <line x1="196.0" y1="618.0" x2="200.0" y2="621.0" stroke="#8B6914" stroke-width="0.8"/>
  <line x1="224.0" y1="618.0" x2="220.0" y2="621.0" stroke="#8B6914" stroke-width="0.8"/>
  <line x1="196.0" y1="626.0" x2="200.0" y2="629.0" stroke="#8B6914" stroke-width="0.8"/>
  <line x1="224.0" y1="626.0" x2="220.0" y2="629.0" stroke="#8B6914" stroke-width="0.8"/>
  <line x1="196.0" y1="634.0" x2="200.0" y2="637.0" stroke="#8B6914" stroke-width="0.8"/>
  <line x1="224.0" y1="634.0" x2="220.0" y2="637.0" stroke="#8B6914" stroke-width="0.8"/>
  <line x1="196.0" y1="642.0" x2="200.0" y2="645.0" stroke="#8B6914" stroke-width="0.8"/>
  <line x1="224.0" y1="642.0" x2="220.0" y2="645.0" stroke="#8B6914" stroke-width="0.8"/>
  <line x1="196.0" y1="650.0" x2="200.0" y2="653.0" stroke="#8B6914" stroke-width="0.8"/>
  <line x1="224.0" y1="650.0" x2="220.0" y2="653.0" stroke="#8B6914" stroke-width="0.8"/>
  <line x1="196.0" y1="658.0" x2="200.0" y2="661.0" stroke="#8B6914" stroke-width="0.8"/>
  <line x1="224.0" y1="658.0" x2="220.0" y2="661.0" stroke="#8B6914" stroke-width="0.8"/>
  <line x1="358.0" y1="540.0" x2="368.0" y2="540.0" stroke="#555" stroke-width="1"/>
  <line x1="358.0" y1="670.0" x2="368.0" y2="670.0" stroke="#555" stroke-width="1"/>
  <line x1="363.0" y1="540.0" x2="363.0" y2="670.0" stroke="#555" stroke-width="1"/>
  <text x="369.0" y="609.0" font-size="10" fill="#555" text-anchor="start" font-weight="normal">8mm cap</text>
  <line x1="40.0" y1="610.0" x2="50.0" y2="610.0" stroke="#d9480f" stroke-width="1"/>
  <line x1="40.0" y1="670.0" x2="50.0" y2="670.0" stroke="#d9480f" stroke-width="1"/>
  <line x1="45.0" y1="610.0" x2="45.0" y2="670.0" stroke="#d9480f" stroke-width="1"/>
  <text x="42.0" y="644.0" font-size="9" fill="#d9480f" text-anchor="end" font-weight="bold">6mm</text>
  <text x="254.0" y="590.0" font-size="9" fill="#495057" text-anchor="start" font-weight="normal">M4 thru-hole (4.5mm)</text>
  <line x1="226.0" y1="595.0" x2="252.0" y2="587.0" stroke="#495057" stroke-width="0.8"/>
  <text x="264.0" y="640.0" font-size="9" fill="#d9480f" text-anchor="start" font-weight="normal">Insert pocket (6mm OD)</text>
  <line x1="236.0" y1="635.0" x2="262.0" y2="635.0" stroke="#d9480f" stroke-width="0.8"/>
  <text x="60.0" y="684.0" font-size="8" fill="#555" text-anchor="start" font-weight="normal">CAP UNDERSIDE (faces shell)</text>
  <text x="60.0" y="520.0" font-size="8" fill="#555" text-anchor="start" font-weight="normal">CAP TOP (faces lid + weather)</text>
  <text x="470.0" y="510.0" font-size="11" fill="#8B6914" text-anchor="middle" font-weight="bold">FOAM ANCHOR TOOTH DETAIL</text>
  <text x="470.0" y="524.0" font-size="8" fill="#555" text-anchor="middle" font-weight="normal">(cross-section, not to scale)</text>
  <rect x="370.0" y="540.0" width="200.0" height="130.0" fill="#fff3e6" stroke="#ff9a3c" stroke-width="2" opacity="1.0" rx="0"/>
  <text x="376.0" y="554.0" font-size="8" fill="#cc6600" text-anchor="start" font-weight="bold">CAP FLANGE</text>
  <rect x="425.0" y="670.0" width="90.0" height="70.0" fill="#fff3e0" stroke="#8B6914" stroke-width="2" opacity="1.0" rx="0"/>
  <line x1="428.0" y1="675.0" x2="512.0" y2="675.0" stroke="#c68c00" stroke-width="1"/>
  <line x1="428.0" y1="681.0" x2="512.0" y2="681.0" stroke="#c68c00" stroke-width="1"/>
  <line x1="428.0" y1="687.0" x2="512.0" y2="687.0" stroke="#c68c00" stroke-width="1"/>
  <line x1="428.0" y1="693.0" x2="512.0" y2="693.0" stroke="#c68c00" stroke-width="1"/>
  <line x1="428.0" y1="699.0" x2="512.0" y2="699.0" stroke="#c68c00" stroke-width="1"/>
  <line x1="428.0" y1="705.0" x2="512.0" y2="705.0" stroke="#c68c00" stroke-width="1"/>
  <line x1="428.0" y1="711.0" x2="512.0" y2="711.0" stroke="#c68c00" stroke-width="1"/>
  <line x1="428.0" y1="717.0" x2="512.0" y2="717.0" stroke="#c68c00" stroke-width="1"/>
  <line x1="428.0" y1="723.0" x2="512.0" y2="723.0" stroke="#c68c00" stroke-width="1"/>
  <line x1="428.0" y1="729.0" x2="512.0" y2="729.0" stroke="#c68c00" stroke-width="1"/>
  <line x1="428.0" y1="735.0" x2="512.0" y2="735.0" stroke="#c68c00" stroke-width="1"/>
  <text x="470.0" y="709.0" font-size="9" fill="#8B6914" text-anchor="middle" font-weight="bold">TOOTH</text>
  <rect x="397.0" y="530.0" width="20.0" height="220.0" fill="#fff3e6" stroke="#ff9a3c" stroke-width="1.5" opacity="1.0" rx="0"/>
  <text x="407.0" y="745.0" font-size="7" fill="#cc6600" text-anchor="middle" font-weight="normal">S1</text>
  <rect x="523.0" y="530.0" width="20.0" height="220.0" fill="#e6f9ec" stroke="#51cf66" stroke-width="1.5" opacity="1.0" rx="0"/>
  <text x="533.0" y="745.0" font-size="7" fill="#2b8a3e" text-anchor="middle" font-weight="normal">S2</text>
  <rect x="417.0" y="740.0" width="106.0" height="20.0" fill="#ffe0b2" stroke="#ff8f00" stroke-width="1" opacity="0.6" rx="0"/>
  <text x="470.0" y="754.0" font-size="7" fill="#ff8f00" text-anchor="middle" font-weight="normal">FOAM (cured)</text>
  <line x1="552.0" y1="670.0" x2="558.0" y2="670.0" stroke="#8B6914" stroke-width="1"/>
  <line x1="552.0" y1="740.0" x2="558.0" y2="740.0" stroke="#8B6914" stroke-width="1"/>
  <line x1="555.0" y1="670.0" x2="555.0" y2="740.0" stroke="#8B6914" stroke-width="1"/>
  <text x="560.0" y="709.0" font-size="9" fill="#8B6914" text-anchor="start" font-weight="bold">10mm</text>
  <line x1="425.0" y1="765.0" x2="425.0" y2="775.0" stroke="#8B6914" stroke-width="1"/>
  <line x1="515.0" y1="765.0" x2="515.0" y2="775.0" stroke="#8B6914" stroke-width="1"/>
  <line x1="425.0" y1="770.0" x2="515.0" y2="770.0" stroke="#8B6914" stroke-width="1"/>
  <text x="470.0" y="766.0" font-size="10" fill="#8B6914" text-anchor="middle" font-weight="normal">26mm (fills gap)</text>
  <text x="421.0" y="709.0" font-size="7" fill="#999" text-anchor="end" font-weight="normal">2mm</text>
  <text x="519.0" y="709.0" font-size="7" fill="#999" text-anchor="start" font-weight="normal">2mm</text>
  <rect x="20.0" y="800.0" width="540.0" height="115.0" fill="#f8f9fa" stroke="#dee2e6" stroke-width="1" opacity="1.0" rx="4"/>
  <text x="30.0" y="816.0" font-size="10" fill="#333" text-anchor="start" font-weight="bold">HOW IT WORKS:</text>
  <text x="30.0" y="832.0" font-size="9" fill="#555" text-anchor="start" font-weight="normal">1. Drill 4.5mm through-holes + counterbore 6x6mm insert pockets (see bolt detail left)</text>
  <text x="30.0" y="846.0" font-size="9" fill="#555" text-anchor="start" font-weight="normal">2. Press M4 brass heat-set inserts with soldering iron at 220-240C</text>
  <text x="30.0" y="860.0" font-size="9" fill="#555" text-anchor="start" font-weight="normal">3. Foam teeth (5x26x10mm) are printed as part of the cap — no assembly needed</text>
  <text x="30.0" y="874.0" font-size="9" fill="#555" text-anchor="start" font-weight="normal">4. Place cap on shells while PU foam is still wet — teeth embed in foam</text>
  <text x="30.0" y="888.0" font-size="9" fill="#555" text-anchor="start" font-weight="normal">5. Foam cures around teeth: permanent alignment + mechanical interlock + seal</text>
  <text x="30.0" y="902.0" font-size="9" fill="#555" text-anchor="start" font-weight="normal">6. M4 bolts through cap + lid compress gaskets for weather seal</text>
  <rect x="15.0" y="925.0" width="1070.0" height="546.0" fill="#f8f9fa" stroke="#dee2e6" stroke-width="1" opacity="1.0" rx="4"/>
  <text x="30.0" y="945.0" font-size="14" fill="#333" text-anchor="start" font-weight="bold">FUSION 360 WORKFLOW</text>
  <text x="40.0" y="970.0" font-size="11" fill="#333" text-anchor="start" font-weight="normal">1. Import DXF profiles</text>
  <text x="40.0" y="992.0" font-size="11" fill="#333" text-anchor="start" font-weight="normal">   File > Insert > Insert DXF</text>
  <text x="40.0" y="1014.0" font-size="11" fill="#333" text-anchor="start" font-weight="normal">   Select 7_cap_top_view.dxf (plan outline)</text>
  <text x="40.0" y="1036.0" font-size="11" fill="#333" text-anchor="start" font-weight="normal">   Select 8_cap_profile.dxf (cross-section)</text>
  <text x="40.0" y="1058.0" font-size="11" fill="#333" text-anchor="start" font-weight="normal"></text>
  <text x="40.0" y="1080.0" font-size="11" fill="#333" text-anchor="start" font-weight="normal">2. Extrude cap rim: 8mm upward</text>
  <text x="40.0" y="1102.0" font-size="11" fill="#333" text-anchor="start" font-weight="normal">   Cap is FLUSH with Shell 1 outer (343x239mm)</text>
  <text x="40.0" y="1124.0" font-size="11" fill="#333" text-anchor="start" font-weight="normal">   Inner lip drops inside Shell 2 for centering</text>
  <text x="40.0" y="1146.0" font-size="11" fill="#333" text-anchor="start" font-weight="normal"></text>
  <text x="40.0" y="1168.0" font-size="11" fill="#333" text-anchor="start" font-weight="normal">3. Cut dual gasket grooves into cap top surface</text>
  <text x="40.0" y="1190.0" font-size="11" fill="#333" text-anchor="start" font-weight="normal">   4mm wide x 2.5mm deep (Extrude > Cut)</text>
  <text x="40.0" y="1212.0" font-size="11" fill="#333" text-anchor="start" font-weight="normal"></text>
  <text x="40.0" y="1234.0" font-size="11" fill="#333" text-anchor="start" font-weight="normal">4. Drill M4 bolt through-holes (4.5mm dia)</text>
  <text x="40.0" y="1256.0" font-size="11" fill="#333" text-anchor="start" font-weight="normal">   Between gaskets, ~80mm spacing</text>
  <text x="40.0" y="1278.0" font-size="11" fill="#333" text-anchor="start" font-weight="normal"></text>
  <text x="40.0" y="1300.0" font-size="11" fill="#333" text-anchor="start" font-weight="normal">5. Counterbore 6mm x 6mm insert pockets</text>
  <text x="40.0" y="1322.0" font-size="11" fill="#333" text-anchor="start" font-weight="normal">   From cap underside — press M4 brass heat-set inserts</text>
  <text x="40.0" y="1344.0" font-size="11" fill="#333" text-anchor="start" font-weight="normal"></text>
  <text x="40.0" y="1366.0" font-size="11" fill="#333" text-anchor="start" font-weight="normal">6. Add foam anchor teeth on flange underside</text>
  <text x="40.0" y="1388.0" font-size="11" fill="#333" text-anchor="start" font-weight="normal">   5x26x10mm, every 50mm</text>
  <text x="40.0" y="1410.0" font-size="11" fill="#333" text-anchor="start" font-weight="normal">   Fill foam gap for alignment + cure into foam</text>
  <text x="40.0" y="1432.0" font-size="11" fill="#333" text-anchor="start" font-weight="normal"></text>
  <text x="40.0" y="1454.0" font-size="11" fill="#333" text-anchor="start" font-weight="normal">7. May split into panels for print bed if needed</text>
</svg>
