<svg xmlns="http://www.w3.org/2000/svg" width="1100" height="820" viewBox="0 0 1100 820">
  <style>text { font-family: Arial, Helvetica, sans-serif; }</style>
  <rect width="1100" height="820" fill="white"/>
  <text x="20.0" y="30.0" font-size="18" fill="#333" text-anchor="start" font-weight="bold">SATELLITE UNIT — EXTRUSION OVERVIEW (Rev 3.2)</text>
  <text x="20.0" y="50.0" font-size="11" fill="#555" text-anchor="start" font-weight="normal">Front cross-section showing two nested shells, foam cavity, and Z-offsets</text>
  <rect x="165.6" y="295.0" width="428.8" height="425.0" fill="#fff3e6" stroke="#ff9a3c" stroke-width="2.5" opacity="1.0" rx="0"/>
  <rect x="171.9" y="301.2" width="416.2" height="412.5" fill="#ffe0b2" stroke="#ff8f00" stroke-width="1.5" opacity="1.0" rx="0"/>
  <text x="176.9" y="319.2" font-size="9" fill="#ff8f00" text-anchor="start" font-weight="normal">FOAM (30mm)</text>
  <rect x="171.9" y="653.8" width="12.5" height="3.8" fill="#ff8f00" stroke="#ff8f00" stroke-width="0.5" opacity="1.0" rx="0"/>
  <rect x="575.6" y="653.8" width="12.5" height="3.8" fill="#ff8f00" stroke="#ff8f00" stroke-width="0.5" opacity="1.0" rx="0"/>
  <rect x="171.9" y="528.8" width="12.5" height="3.8" fill="#ff8f00" stroke="#ff8f00" stroke-width="0.5" opacity="1.0" rx="0"/>
  <rect x="575.6" y="528.8" width="12.5" height="3.8" fill="#ff8f00" stroke="#ff8f00" stroke-width="0.5" opacity="1.0" rx="0"/>
  <rect x="171.9" y="403.8" width="12.5" height="3.8" fill="#ff8f00" stroke="#ff8f00" stroke-width="0.5" opacity="1.0" rx="0"/>
  <rect x="575.6" y="403.8" width="12.5" height="3.8" fill="#ff8f00" stroke="#ff8f00" stroke-width="0.5" opacity="1.0" rx="0"/>
  <rect x="196.9" y="610.0" width="12.5" height="3.8" fill="#51cf66" stroke="#2b8a3e" stroke-width="0.5" opacity="1.0" rx="0"/>
  <rect x="550.6" y="610.0" width="12.5" height="3.8" fill="#51cf66" stroke="#2b8a3e" stroke-width="0.5" opacity="1.0" rx="0"/>
  <rect x="196.9" y="485.0" width="12.5" height="3.8" fill="#51cf66" stroke="#2b8a3e" stroke-width="0.5" opacity="1.0" rx="0"/>
  <rect x="550.6" y="485.0" width="12.5" height="3.8" fill="#51cf66" stroke="#2b8a3e" stroke-width="0.5" opacity="1.0" rx="0"/>
  <rect x="196.9" y="360.0" width="12.5" height="3.8" fill="#51cf66" stroke="#2b8a3e" stroke-width="0.5" opacity="1.0" rx="0"/>
  <rect x="550.6" y="360.0" width="12.5" height="3.8" fill="#51cf66" stroke="#2b8a3e" stroke-width="0.5" opacity="1.0" rx="0"/>
  <rect x="171.9" y="576.2" width="37.5" height="18.8" fill="#d35400" stroke="#d35400" stroke-width="0.5" opacity="0.8" rx="0"/>
  <rect x="550.6" y="576.2" width="37.5" height="18.8" fill="#d35400" stroke="#d35400" stroke-width="0.5" opacity="0.8" rx="0"/>
  <rect x="171.9" y="451.2" width="37.5" height="18.8" fill="#d35400" stroke="#d35400" stroke-width="0.5" opacity="0.8" rx="0"/>
  <rect x="550.6" y="451.2" width="37.5" height="18.8" fill="#d35400" stroke="#d35400" stroke-width="0.5" opacity="0.8" rx="0"/>
  <text x="187.4" y="659.6" font-size="7" fill="#ff8f00" text-anchor="start" font-weight="normal">RIBS</text>
  <text x="212.4" y="589.6" font-size="7" fill="#d35400" text-anchor="start" font-weight="normal">NUB</text>
  <rect x="209.4" y="301.2" width="341.2" height="375.0" fill="#e6f9ec" stroke="#51cf66" stroke-width="2.5" opacity="1.0" rx="0"/>
  <text x="380.0" y="488.8" font-size="11" fill="#2b8a3e" text-anchor="middle" font-weight="bold">CELL + THERMAL ZONES</text>
  <line x1="609.4" y1="295.0" x2="609.4" y2="720.0" stroke="#ff9a3c" stroke-width="2"/>
  <polygon points="609.4,720.0 605.4,712.0 613.4,712.0" fill="#ff9a3c"/>
  <polygon points="609.4,295.0 605.4,303.0 613.4,303.0" fill="#ff9a3c"/>
  <text x="617.4" y="501.5" font-size="11" fill="#cc6600" text-anchor="start" font-weight="bold">S1 = 340mm</text>
  <text x="617.4" y="515.5" font-size="9" fill="#cc6600" text-anchor="start" font-weight="normal">Z-offset: 0mm</text>
  <line x1="719.4" y1="301.2" x2="719.4" y2="676.2" stroke="#51cf66" stroke-width="2"/>
  <polygon points="719.4,676.2 715.4,668.2 723.4,668.2" fill="#51cf66"/>
  <polygon points="719.4,301.2 715.4,309.2 723.4,309.2" fill="#51cf66"/>
  <text x="727.4" y="482.8" font-size="11" fill="#2b8a3e" text-anchor="start" font-weight="bold">S2 = 300mm</text>
  <text x="727.4" y="496.8" font-size="9" fill="#2b8a3e" text-anchor="start" font-weight="normal">Z-offset: 35mm</text>
  <line x1="135.6" y1="676.2" x2="799.4" y2="676.2" stroke="#51cf66" stroke-width="1" stroke-dasharray="4,4"/>
  <text x="130.6" y="680.2" font-size="9" fill="#51cf66" text-anchor="end" font-weight="normal">Z=35</text>
  <line x1="135.6" y1="720.0" x2="799.4" y2="720.0" stroke="#333" stroke-width="1" stroke-dasharray="4,4"/>
  <text x="130.6" y="724.0" font-size="9" fill="#333" text-anchor="end" font-weight="normal">Z=0</text>
  <line x1="165.6" y1="740.0" x2="165.6" y2="750.0" stroke="#cc6600" stroke-width="1"/>
  <line x1="594.4" y1="740.0" x2="594.4" y2="750.0" stroke="#cc6600" stroke-width="1"/>
  <line x1="165.6" y1="745.0" x2="594.4" y2="745.0" stroke="#cc6600" stroke-width="1"/>
  <text x="380.0" y="741.0" font-size="10" fill="#cc6600" text-anchor="middle" font-weight="normal">343mm (Shell 1)</text>
  <rect x="15.0" y="63.0" width="300.0" height="190.0" fill="#f8f9fa" stroke="#dee2e6" stroke-width="1" opacity="1.0" rx="4"/>
  <text x="20.0" y="82.0" font-size="13" fill="#333" text-anchor="start" font-weight="bold">LEGEND</text>
  <rect x="25.0" y="88.0" width="16.0" height="16.0" fill="#ff9a3c" stroke="#cc6600" stroke-width="1" opacity="1.0" rx="2"/>
  <text x="48.0" y="100.0" font-size="11" fill="#333" text-anchor="start" font-weight="bold">Shell 1 (ASA outer)</text>
  <text x="48.0" y="113.0" font-size="9" fill="#555" text-anchor="start" font-weight="normal">343 x 239 x 340mm</text>
  <rect x="25.0" y="118.0" width="16.0" height="16.0" fill="#51cf66" stroke="#2b8a3e" stroke-width="1" opacity="1.0" rx="2"/>
  <text x="48.0" y="130.0" font-size="11" fill="#333" text-anchor="start" font-weight="bold">Shell 2 (PETG structural)</text>
  <text x="48.0" y="143.0" font-size="9" fill="#555" text-anchor="start" font-weight="normal">273 x 169 x 300mm</text>
  <rect x="25.0" y="148.0" width="16.0" height="16.0" fill="#ffe0b2" stroke="#ff8f00" stroke-width="1" opacity="1.0" rx="2"/>
  <text x="48.0" y="160.0" font-size="11" fill="#333" text-anchor="start" font-weight="bold">Foam cavity</text>
  <text x="48.0" y="173.0" font-size="9" fill="#555" text-anchor="start" font-weight="normal">30mm between S1 and S2</text>
  <rect x="25.0" y="178.0" width="16.0" height="16.0" fill="#ff8f00" stroke="#ff8f00" stroke-width="1" opacity="1.0" rx="2"/>
  <text x="48.0" y="190.0" font-size="11" fill="#333" text-anchor="start" font-weight="bold">Foam-pressure ribs</text>
  <text x="48.0" y="203.0" font-size="9" fill="#555" text-anchor="start" font-weight="normal">3 x 10mm, 100mm spacing</text>
  <rect x="25.0" y="208.0" width="16.0" height="16.0" fill="#d35400" stroke="#d35400" stroke-width="1" opacity="1.0" rx="2"/>
  <text x="48.0" y="220.0" font-size="11" fill="#333" text-anchor="start" font-weight="bold">Spacer nubs</text>
  <text x="48.0" y="233.0" font-size="9" fill="#555" text-anchor="start" font-weight="normal">15 x 30mm (full foam gap)</text>
</svg>
