<svg xmlns="http://www.w3.org/2000/svg" width="1100" height="750" viewBox="0 0 1100 750">
  <style>text { font-family: Arial, Helvetica, sans-serif; }</style>
  <rect width="1100" height="750" fill="white"/>
  <text x="20.0" y="30.0" font-size="18" fill="#333" text-anchor="start" font-weight="bold">SATELLITE UNIT — SHELL 3 EXTRUSION (PETG)</text>
  <text x="20.0" y="50.0" font-size="11" fill="#555" text-anchor="start" font-weight="normal">Rev 3.2  |  Plan: 263 x 159mm  |  Extrude: 293mm  |  Z-offset: 41mm</text>
  <text x="250.0" y="115.0" font-size="13" fill="#333" text-anchor="middle" font-weight="bold">PLAN VIEW (top-down)</text>
  <rect x="60.0" y="130.0" width="380.0" height="229.7" fill="#e0f0ff" stroke="#339af0" stroke-width="2.5" opacity="1.0" rx="0"/>
  <line x1="60.0" y1="374.7" x2="60.0" y2="384.7" stroke="#1864ab" stroke-width="1"/>
  <line x1="440.0" y1="374.7" x2="440.0" y2="384.7" stroke="#1864ab" stroke-width="1"/>
  <line x1="60.0" y1="379.7" x2="440.0" y2="379.7" stroke="#1864ab" stroke-width="1"/>
  <text x="250.0" y="375.7" font-size="10" fill="#1864ab" text-anchor="middle" font-weight="normal">263mm</text>
  <line x1="450.0" y1="130.0" x2="460.0" y2="130.0" stroke="#1864ab" stroke-width="1"/>
  <line x1="450.0" y1="359.7" x2="460.0" y2="359.7" stroke="#1864ab" stroke-width="1"/>
  <line x1="455.0" y1="130.0" x2="455.0" y2="359.7" stroke="#1864ab" stroke-width="1"/>
  <text x="461.0" y="248.9" font-size="10" fill="#1864ab" text-anchor="start" font-weight="normal">159mm</text>
  <line x1="235.0" y1="244.9" x2="265.0" y2="244.9" stroke="#339af0" stroke-width="0.5"/>
  <line x1="250.0" y1="229.9" x2="250.0" y2="259.9" stroke="#339af0" stroke-width="0.5"/>
  <text x="250.0" y="409.7" font-size="10" fill="#555" text-anchor="middle" font-weight="normal">Source: 1_top_view.dxf</text>
  <text x="785.0" y="115.0" font-size="13" fill="#333" text-anchor="middle" font-weight="bold">SIDE PROFILE (extrusion direction)</text>
  <rect x="620.0" y="408.5" width="250.0" height="4.0" fill="#339af0" stroke="#1864ab" stroke-width="1.5" opacity="1.0" rx="0"/>
  <text x="745.0" y="428.5" font-size="10" fill="#1864ab" text-anchor="middle" font-weight="normal">263mm</text>
  <rect x="620.0" y="130.0" width="250.0" height="278.5" fill="none" stroke="#339af0" stroke-width="1.5" stroke-dasharray="6,4"/>
  <rect x="621.0" y="131.0" width="248.0" height="276.5" fill="#e0f0ff" stroke="none" stroke-width="0" opacity="0.4" rx="0"/>
  <line x1="890.0" y1="130.0" x2="890.0" y2="408.5" stroke="#339af0" stroke-width="2"/>
  <polygon points="890.0,408.5 886.0,400.5 894.0,400.5" fill="#339af0"/>
  <polygon points="890.0,130.0 886.0,138.0 894.0,138.0" fill="#339af0"/>
  <text x="900.0" y="263.3" font-size="12" fill="#1864ab" text-anchor="start" font-weight="bold">Extrude Z = 293mm</text>
  <text x="900.0" y="279.3" font-size="10" fill="#555" text-anchor="start" font-weight="normal">(upward from Z = 41mm)</text>
  <line x1="600.0" y1="408.5" x2="880.0" y2="408.5" stroke="#339af0" stroke-width="1" stroke-dasharray="4,3"/>
  <text x="595.0" y="412.5" font-size="9" fill="#1864ab" text-anchor="end" font-weight="normal">Z=41</text>
  <line x1="600.0" y1="130.0" x2="880.0" y2="130.0" stroke="#339af0" stroke-width="1" stroke-dasharray="4,3"/>
  <text x="595.0" y="134.0" font-size="9" fill="#1864ab" text-anchor="end" font-weight="normal">Z=334</text>
  <rect x="15.0" y="468.5" width="1070.0" height="155.0" fill="#f8f9fa" stroke="#dee2e6" stroke-width="1" opacity="1.0" rx="4"/>
  <text x="30.0" y="488.5" font-size="14" fill="#333" text-anchor="start" font-weight="bold">FUSION 360 WORKFLOW</text>
  <text x="40.0" y="513.5" font-size="11" fill="#333" text-anchor="start" font-weight="normal">1. Import 1_top_view.dxf → Insert > Insert DXF (select XY plane)</text>
  <text x="40.0" y="535.5" font-size="11" fill="#333" text-anchor="start" font-weight="normal">2. Extrude profile upward: Z = 293mm (New Body)</text>
  <text x="40.0" y="557.5" font-size="11" fill="#333" text-anchor="start" font-weight="normal">3. Shell command: wall thickness = 3mm, select top face to hollow</text>
  <text x="40.0" y="579.5" font-size="11" fill="#333" text-anchor="start" font-weight="normal">4. Move body: translate Z = +41mm to final position</text>
  <text x="40.0" y="601.5" font-size="11" fill="#333" text-anchor="start" font-weight="normal">5. Verify outer dims: 263 x 159 x 293mm</text>
</svg>
